<svg width="800" height="800" viewBox="0 0 800 800" fill="none" xmlns="http://www.w3.org/2000/svg">
<rect width="800" height="800" fill="white"/>
<path d="M125.756 174.073V448.451C125.756 466.777 128.532 484.997 134.094 502.462C134.249 502.946 134.404 503.42 134.559 503.913C157.514 574.422 215.091 628.578 287.052 646.547C304.155 650.821 316.73 651.769 321.49 651.981C322.941 652.049 324.373 652.136 325.824 652.252C341.156 653.442 431.729 656.71 499.415 576.511C512.89 561.454 524.992 537.258 532.818 519.483C538.863 505.76 542.298 491.031 543.081 476.061L551.662 415.358L555.192 357.363C555.192 357.363 561.064 298.835 556.266 267.376C553.519 249.341 546.37 232.31 534.714 218.278C507.734 185.814 474.564 182.245 467.608 181.858C466.709 181.81 465.809 181.752 464.909 181.684C457.035 181.094 416.997 180.011 386.815 215.3C368.929 236.208 360.271 263.692 363.724 290.992C368.813 331.223 397.446 357.005 423.487 373.822C466.525 401.616 584.281 453.557 712.938 453.557" stroke="#FE595E" stroke-width="120" stroke-miterlimit="10" stroke-linecap="round" stroke-linejoin="round"/>
</svg>
